<mxfile host="65bd71144e">
    <diagram id="Wvd_knTwxB_sKlIyY2sI" name="第 1 页">
        <mxGraphModel dx="2960" dy="1044" grid="0" gridSize="10" guides="1" tooltips="1" connect="1" arrows="1" fold="1" page="0" pageScale="1" pageWidth="827" pageHeight="1169" math="0" shadow="0">
            <root>
                <mxCell id="0"/>
                <mxCell id="1" parent="0"/>
                <mxCell id="2" value="&lt;font style=&quot;font-size: 18px&quot; color=&quot;#ff9933&quot;&gt;Group&lt;/font&gt;&lt;font style=&quot;font-size: 18px&quot;&gt;：apiextension.k8s.io&lt;br&gt;&lt;font color=&quot;#ff9933&quot;&gt;Kind&lt;/font&gt;&lt;/font&gt;&lt;font style=&quot;font-size: 18px&quot;&gt;：&lt;font style=&quot;font-size: 18px&quot;&gt;Custom Resources Definition&lt;/font&gt;&lt;/font&gt;" style="rounded=0;whiteSpace=wrap;html=1;sketch=0;hachureGap=4;fontFamily=Lucida Console;fontSize=20;align=left;spacingLeft=10;fillColor=#60a917;strokeColor=#2D7600;fontColor=#ffffff;" vertex="1" parent="1">
                    <mxGeometry x="-968" y="211" width="374" height="123" as="geometry"/>
                </mxCell>
                <mxCell id="5" value="CRD 这种 API Object 的每一个实例，都定义出另一个 API Object - Custom Resource" style="text;strokeColor=none;fillColor=none;html=1;align=left;verticalAlign=middle;whiteSpace=wrap;rounded=0;sketch=0;hachureGap=4;fontFamily=Lucida Console;fontSize=18;" vertex="1" parent="1">
                    <mxGeometry x="-968" y="75" width="414" height="79" as="geometry"/>
                </mxCell>
                <mxCell id="6" value="&lt;font style=&quot;font-size: 18px&quot; color=&quot;#ff9933&quot;&gt;Group&lt;/font&gt;&lt;font style=&quot;font-size: 18px&quot;&gt;：&amp;lt;custom group 1&amp;gt;&lt;br&gt;&lt;font color=&quot;#ff9933&quot;&gt;Kind&lt;/font&gt;&lt;/font&gt;&lt;font style=&quot;font-size: 18px&quot;&gt;：&amp;lt;custom kind 1&amp;gt;&lt;/font&gt;" style="rounded=0;whiteSpace=wrap;html=1;sketch=0;hachureGap=4;fontFamily=Lucida Console;fontSize=20;align=left;spacingLeft=10;fillColor=#1ba1e2;strokeColor=#006EAF;fontColor=#ffffff;" vertex="1" parent="1">
                    <mxGeometry x="-402" y="101" width="271" height="123" as="geometry"/>
                </mxCell>
                <mxCell id="7" value="&lt;font style=&quot;font-size: 18px&quot; color=&quot;#ff9933&quot;&gt;Group&lt;/font&gt;&lt;font style=&quot;font-size: 18px&quot;&gt;：&amp;lt;custom group 2&amp;gt;&lt;br&gt;&lt;font color=&quot;#ff9933&quot;&gt;Kind&lt;/font&gt;&lt;/font&gt;&lt;font style=&quot;font-size: 18px&quot;&gt;：&amp;lt;custom kind 2&amp;gt;&lt;/font&gt;" style="rounded=0;whiteSpace=wrap;html=1;sketch=0;hachureGap=4;fontFamily=Lucida Console;fontSize=20;align=left;spacingLeft=10;fillColor=#1ba1e2;strokeColor=#006EAF;fontColor=#ffffff;" vertex="1" parent="1">
                    <mxGeometry x="-402" y="303" width="271" height="123" as="geometry"/>
                </mxCell>
                <mxCell id="8" value="" style="edgeStyle=none;orthogonalLoop=1;jettySize=auto;html=1;shape=flexArrow;rounded=1;startSize=8;endSize=8;sketch=0;hachureGap=4;fontFamily=Lucida Console;fontSize=18;fontColor=#FFFFFF;endArrow=open;sourcePerimeterSpacing=8;targetPerimeterSpacing=8;curved=1;fillColor=#60a917;strokeColor=#2D7600;" edge="1" parent="1">
                    <mxGeometry width="140" relative="1" as="geometry">
                        <mxPoint x="-578" y="265" as="sourcePoint"/>
                        <mxPoint x="-450" y="265" as="targetPoint"/>
                        <Array as="points"/>
                    </mxGeometry>
                </mxCell>
            </root>
        </mxGraphModel>
    </diagram>
</mxfile>